# xmcd
#
# Track frame offsets:
#	151
#	14369
#	39308
#	53142
#	67669
#	82398
#	94561
#	108768
#	121875
#	135288
#	149865
#
# Disc length: 2179 seconds
#
# Revision: 0
# Processed by: cddbd v1.5.2PL0 Copyright (c) Steve Scherf et al.
# Submitted via: audiograbber 1.83.01
#
DISCID=8c08810b
DTITLE=Sorridente e Zaqueo - Carreiro Benedito
DYEAR=1900
DGENRE=Sertanejo
TTITLE0=Carreiro Benedito
TTITLE1=Casinha branca
TTITLE2=A chuva
TTITLE3=Sinfonia do sertão
TTITLE4=Minha decisão
TTITLE5=O Caboclo
TTITLE6=Os dois tropeiros
TTITLE7=Vai vai do canoeiro
TTITLE8=Amor infinito
TTITLE9=Gata xereta
TTITLE10=Amor volúvel
EXTD=
EXTT0=
EXTT1=
EXTT2=
EXTT3=
EXTT4=
EXTT5=
EXTT6=
EXTT7=
EXTT8=
EXTT9=
EXTT10=
PLAYORDER=
